<mxfile host="app.diagrams.net" modified="2024-08-13T15:16:44.812Z" agent="Mozilla/5.0 (Windows NT 10.0; Win64; x64) AppleWebKit/537.36 (KHTML, like Gecko) Chrome/127.0.0.0 Safari/537.36" version="24.4.10" etag="wPRkW9_xM8fhbrNfpOF6" type="github">
  <diagram name="Page-1" id="wTiatrx2bdEvPEKhcCM7">
    <mxGraphModel>
      <root>
        <mxCell id="0" />
        <mxCell id="1" parent="0" />
      </root>
    </mxGraphModel>
  </diagram>
</mxfile>
